#N canvas 527 131 506 675 10;
#X obj 77 436 cnv 15 170 20 empty empty Sequencer 20 12 0 14 -204800
-66577 0;
#X obj 3 2 cnv 15 500 60 empty empty 8step 20 12 0 14 -233017 -66577
0;
#X text 23 22 outputs midi notes for selected notes in a certain clock
frequency;
#X obj 111 461 bng 10 250 50 0 empty empty empty 17 7 0 10 -262144
-1 -1;
#X obj 128 461 bng 10 250 50 0 empty empty empty 17 7 0 10 -262144
-1 -1;
#X obj 145 461 bng 10 250 50 0 empty empty empty 17 7 0 10 -262144
-1 -1;
#X obj 162 461 bng 10 250 50 0 empty empty empty 17 7 0 10 -262144
-1 -1;
#X obj 179 461 bng 10 250 50 0 empty empty empty 17 7 0 10 -262144
-1 -1;
#X obj 195 461 bng 10 250 50 0 empty empty empty 17 7 0 10 -262144
-1 -1;
#X obj 213 461 bng 10 250 50 0 empty empty empty 17 7 0 10 -262144
-1 -1;
#X obj 229 461 bng 10 250 50 0 empty empty empty 17 7 0 10 -262144
-1 -1;
#X obj 86 139 f;
#X msg 101 118 0;
#X obj 101 96 loadbang;
#X obj 86 72 inlet clock;
#X obj 86 163 + 1;
#X obj 86 185 mod 8;
#X obj 144 207 == 0;
#X obj 161 229 == 1;
#X obj 178 251 == 2;
#X obj 195 273 == 3;
#X obj 212 295 == 4;
#X obj 228 317 == 5;
#X obj 246 338 == 6;
#X obj 262 360 == 7;
#X obj 111 229 spigot;
#X obj 128 251 spigot;
#X obj 145 273 spigot;
#X obj 162 295 spigot;
#X obj 179 317 spigot;
#X obj 195 339 spigot;
#X obj 213 360 spigot;
#X obj 229 381 spigot;
#X obj 343 541 makenote;
#X floatatom 40 436 5 0 127 0 vel - -;
#X obj 18 336 loadbang;
#X obj 18 367 100;
#X floatatom 80 476 3 0 127 0 - - -;
#X floatatom 80 499 3 0 127 0 - - -;
#X floatatom 80 522 3 0 127 0 - - -;
#X floatatom 80 545 3 0 127 0 - - -;
#X floatatom 80 568 3 0 127 0 - - -;
#X floatatom 80 591 3 0 127 0 - - -;
#X floatatom 80 614 3 0 127 0 - - -;
#X floatatom 80 637 3 0 127 0 - - -;
#X floatatom 40 456 5 0 5000 0 dur - -;
#X obj 343 586 outlet pitch;
#X obj 388 564 outlet velocity;
#X obj 105 634 8step_note;
#X obj 105 496 8step_note;
#X obj 105 473 8step_note;
#X obj 105 519 8step_note;
#X obj 105 542 8step_note;
#X obj 105 565 8step_note;
#X obj 105 611 8step_note;
#X obj 105 588 8step_note;
#X obj 45 367 60;
#X obj 71 367 62;
#X obj 97 367 64;
#X obj 123 367 65;
#X obj 45 387 67;
#X obj 71 387 69;
#X obj 97 387 71;
#X obj 122 387 72;
#X obj 18 313 r clear;
#X connect 3 0 48 0;
#X connect 3 0 49 0;
#X connect 3 0 50 0;
#X connect 3 0 51 0;
#X connect 3 0 52 0;
#X connect 3 0 53 0;
#X connect 3 0 54 0;
#X connect 3 0 55 0;
#X connect 4 0 48 1;
#X connect 4 0 49 1;
#X connect 4 0 50 1;
#X connect 4 0 51 1;
#X connect 4 0 52 1;
#X connect 4 0 53 1;
#X connect 4 0 54 1;
#X connect 4 0 55 1;
#X connect 5 0 48 2;
#X connect 5 0 49 2;
#X connect 5 0 50 2;
#X connect 5 0 51 2;
#X connect 5 0 52 2;
#X connect 5 0 53 2;
#X connect 5 0 54 2;
#X connect 5 0 55 2;
#X connect 6 0 48 3;
#X connect 6 0 49 3;
#X connect 6 0 50 3;
#X connect 6 0 51 3;
#X connect 6 0 52 3;
#X connect 6 0 53 3;
#X connect 6 0 54 3;
#X connect 6 0 55 3;
#X connect 7 0 48 4;
#X connect 7 0 49 4;
#X connect 7 0 50 4;
#X connect 7 0 51 4;
#X connect 7 0 52 4;
#X connect 7 0 53 4;
#X connect 7 0 54 4;
#X connect 7 0 55 4;
#X connect 8 0 48 5;
#X connect 8 0 49 5;
#X connect 8 0 50 5;
#X connect 8 0 51 5;
#X connect 8 0 52 5;
#X connect 8 0 53 5;
#X connect 8 0 54 5;
#X connect 8 0 55 5;
#X connect 9 0 48 6;
#X connect 9 0 49 6;
#X connect 9 0 50 6;
#X connect 9 0 51 6;
#X connect 9 0 52 6;
#X connect 9 0 53 6;
#X connect 9 0 54 6;
#X connect 9 0 55 6;
#X connect 10 0 48 7;
#X connect 10 0 49 7;
#X connect 10 0 50 7;
#X connect 10 0 51 7;
#X connect 10 0 52 7;
#X connect 10 0 53 7;
#X connect 10 0 54 7;
#X connect 10 0 55 7;
#X connect 11 0 15 0;
#X connect 12 0 11 1;
#X connect 13 0 12 0;
#X connect 14 0 11 0;
#X connect 14 0 25 0;
#X connect 14 0 26 0;
#X connect 14 0 27 0;
#X connect 14 0 28 0;
#X connect 14 0 29 0;
#X connect 14 0 30 0;
#X connect 14 0 31 0;
#X connect 14 0 32 0;
#X connect 15 0 11 1;
#X connect 15 0 16 0;
#X connect 16 0 17 0;
#X connect 16 0 18 0;
#X connect 16 0 19 0;
#X connect 16 0 20 0;
#X connect 16 0 22 0;
#X connect 16 0 21 0;
#X connect 16 0 23 0;
#X connect 16 0 24 0;
#X connect 17 0 25 1;
#X connect 18 0 26 1;
#X connect 19 0 27 1;
#X connect 20 0 28 1;
#X connect 21 0 29 1;
#X connect 22 0 30 1;
#X connect 23 0 31 1;
#X connect 24 0 32 1;
#X connect 25 0 3 0;
#X connect 26 0 4 0;
#X connect 27 0 5 0;
#X connect 28 0 6 0;
#X connect 29 0 7 0;
#X connect 30 0 8 0;
#X connect 31 0 9 0;
#X connect 32 0 10 0;
#X connect 33 0 46 0;
#X connect 33 1 47 0;
#X connect 34 0 33 1;
#X connect 35 0 36 0;
#X connect 35 0 56 0;
#X connect 35 0 57 0;
#X connect 35 0 58 0;
#X connect 35 0 59 0;
#X connect 35 0 60 0;
#X connect 35 0 61 0;
#X connect 35 0 62 0;
#X connect 35 0 63 0;
#X connect 36 0 34 0;
#X connect 36 0 45 0;
#X connect 37 0 33 0;
#X connect 38 0 33 0;
#X connect 39 0 33 0;
#X connect 40 0 33 0;
#X connect 41 0 33 0;
#X connect 42 0 33 0;
#X connect 43 0 33 0;
#X connect 44 0 33 0;
#X connect 45 0 33 2;
#X connect 48 0 44 0;
#X connect 48 0 45 0;
#X connect 48 0 34 0;
#X connect 49 0 38 0;
#X connect 49 0 45 0;
#X connect 49 0 34 0;
#X connect 50 0 37 0;
#X connect 50 0 45 0;
#X connect 50 0 34 0;
#X connect 51 0 39 0;
#X connect 51 0 45 0;
#X connect 51 0 34 0;
#X connect 52 0 40 0;
#X connect 52 0 45 0;
#X connect 52 0 34 0;
#X connect 52 0 51 0;
#X connect 53 0 41 0;
#X connect 53 0 45 0;
#X connect 53 0 34 0;
#X connect 54 0 43 0;
#X connect 54 0 45 0;
#X connect 54 0 34 0;
#X connect 55 0 42 0;
#X connect 55 0 45 0;
#X connect 55 0 34 0;
#X connect 56 0 37 0;
#X connect 57 0 38 0;
#X connect 58 0 39 0;
#X connect 59 0 40 0;
#X connect 60 0 41 0;
#X connect 61 0 42 0;
#X connect 62 0 43 0;
#X connect 63 0 44 0;
#X connect 64 0 35 0;
#X coords 0 -1 1 1 240 240 1 10 420;
