#N canvas 384 383 405 339 10;
#X obj 70 126 spigot;
#X obj 70 303 outlet;
#X obj 10 51 inlet;
#X obj 48 51 inlet;
#X obj 86 51 inlet;
#X obj 124 51 inlet;
#X obj 162 51 inlet;
#X obj 200 51 inlet;
#X obj 238 51 inlet;
#X obj 276 51 inlet;
#X obj 2 2 cnv 15 400 40 empty empty 8step_note 20 12 0 14 -228856
-1 0;
#X text 20 22 outputs a bang when the current note is banged;
#X obj 87 147 spigot;
#X obj 104 168 spigot;
#X obj 121 189 spigot;
#X obj 138 210 spigot;
#X obj 155 231 spigot;
#X obj 172 252 spigot;
#X obj 189 273 spigot;
#X obj 101 101 cnv 15 138 19 empty empty empty 20 12 0 14 -1 -66577
0;
#X obj 103 103 tgl 15 0 empty empty empty 17 7 0 10 -262144 -1 -1 0
1;
#X obj 120 103 tgl 15 0 empty empty empty 17 7 0 10 -262144 -1 -1 0
1;
#X obj 137 103 tgl 15 0 empty empty empty 17 7 0 10 -262144 -1 -1 0
1;
#X obj 154 103 tgl 15 0 empty empty empty 17 7 0 10 -262144 -1 -1 0
1;
#X obj 171 103 tgl 15 0 empty empty empty 17 7 0 10 -262144 -1 -1 0
1;
#X obj 188 103 tgl 15 0 empty empty empty 17 7 0 10 -262144 -1 -1 0
1;
#X obj 205 103 tgl 15 0 empty empty empty 17 7 0 10 -262144 -1 -1 0
1;
#X obj 222 103 tgl 15 0 empty empty empty 17 7 0 10 -262144 -1 -1 0
1;
#X obj 312 108 r default;
#X obj 312 131 loadbang;
#X obj 312 156 0;
#X connect 0 0 1 0;
#X connect 2 0 0 0;
#X connect 3 0 12 0;
#X connect 4 0 13 0;
#X connect 5 0 14 0;
#X connect 6 0 15 0;
#X connect 7 0 16 0;
#X connect 8 0 17 0;
#X connect 9 0 18 0;
#X connect 12 0 1 0;
#X connect 13 0 1 0;
#X connect 14 0 1 0;
#X connect 15 0 1 0;
#X connect 16 0 1 0;
#X connect 17 0 1 0;
#X connect 18 0 1 0;
#X connect 20 0 0 1;
#X connect 21 0 12 1;
#X connect 22 0 13 1;
#X connect 23 0 14 1;
#X connect 24 0 15 1;
#X connect 25 0 16 1;
#X connect 26 0 17 1;
#X connect 27 0 18 1;
#X connect 28 0 29 0;
#X connect 29 0 30 0;
#X connect 30 0 20 0;
#X connect 30 0 21 0;
#X connect 30 0 22 0;
#X connect 30 0 23 0;
#X connect 30 0 24 0;
#X connect 30 0 25 0;
#X connect 30 0 26 0;
#X connect 30 0 27 0;
#X coords 0 -1 1 1 140 21 1 100 100;
