#N canvas 384 383 407 478 10;
#X obj 70 276 spigot;
#X obj 70 453 outlet;
#X obj 7 71 inlet;
#X obj 23 275 inlet;
#X obj 23 297 inlet;
#X obj 23 318 inlet;
#X obj 23 339 inlet;
#X obj 23 360 inlet;
#X obj 23 381 inlet;
#X obj 23 401 inlet;
#X obj 2 2 cnv 15 400 60 empty empty 8step_note 20 12 0 14 -228856
-1 0;
#X obj 87 297 spigot;
#X obj 104 318 spigot;
#X obj 121 339 spigot;
#X obj 138 360 spigot;
#X obj 155 381 spigot;
#X obj 172 402 spigot;
#X obj 189 423 spigot;
#X obj 101 251 cnv 15 138 19 empty empty empty 20 12 0 14 -1 -66577
0;
#X obj 103 253 tgl 15 0 empty empty empty 17 7 0 10 -262144 -1 -1 0
1;
#X obj 120 253 tgl 15 0 empty empty empty 17 7 0 10 -262144 -1 -1 0
1;
#X obj 137 253 tgl 15 0 empty empty empty 17 7 0 10 -262144 -1 -1 0
1;
#X obj 154 253 tgl 15 0 empty empty empty 17 7 0 10 -262144 -1 -1 0
1;
#X obj 171 253 tgl 15 0 empty empty empty 17 7 0 10 -262144 -1 -1 0
1;
#X obj 188 253 tgl 15 0 empty empty empty 17 7 0 10 -262144 -1 -1 0
1;
#X obj 205 253 tgl 15 0 empty empty empty 17 7 0 10 -262144 -1 -1 0
1;
#X obj 222 253 tgl 15 0 empty empty empty 17 7 0 10 -262144 -1 -1 0
1;
#X text 20 22 outputs a bang when the current note is banged. set it
with a bitwise int;
#X obj 7 102 route float;
#X obj 222 220 expr ($i1&1)==1;
#X obj 103 80 expr ($i1&128)==128;
#X obj 205 200 expr ($i1&2)==2;
#X obj 188 180 expr ($i1&4)==4;
#X obj 171 160 expr ($i1&8)==8;
#X obj 154 140 expr ($i1&16)==16;
#X obj 137 120 expr ($i1&32)==32;
#X obj 120 100 expr ($i1&64)==64;
#X connect 0 0 1 0;
#X connect 2 0 28 0;
#X connect 3 0 11 0;
#X connect 4 0 12 0;
#X connect 5 0 13 0;
#X connect 6 0 14 0;
#X connect 7 0 15 0;
#X connect 8 0 16 0;
#X connect 9 0 17 0;
#X connect 11 0 1 0;
#X connect 12 0 1 0;
#X connect 13 0 1 0;
#X connect 14 0 1 0;
#X connect 15 0 1 0;
#X connect 16 0 1 0;
#X connect 17 0 1 0;
#X connect 19 0 0 1;
#X connect 20 0 11 1;
#X connect 21 0 12 1;
#X connect 22 0 13 1;
#X connect 23 0 14 1;
#X connect 24 0 15 1;
#X connect 25 0 16 1;
#X connect 26 0 17 1;
#X connect 28 0 30 0;
#X connect 28 0 32 0;
#X connect 28 0 31 0;
#X connect 28 0 29 0;
#X connect 28 0 33 0;
#X connect 28 0 36 0;
#X connect 28 0 35 0;
#X connect 28 0 34 0;
#X connect 28 1 0 0;
#X connect 29 0 26 0;
#X connect 30 0 19 0;
#X connect 31 0 25 0;
#X connect 32 0 24 0;
#X connect 33 0 23 0;
#X connect 34 0 22 0;
#X connect 35 0 21 0;
#X connect 36 0 20 0;
#X coords 0 -1 1 1 140 21 1 100 250;
