#N canvas 539 224 506 675 10;
#X obj 177 436 cnv 15 170 20 empty empty Sequencer 20 12 0 14 -204800
-66577 0;
#X obj 3 2 cnv 15 500 60 empty empty 8step 20 12 0 14 -233017 -66577
0;
#X text 23 22 outputs midi notes for selected notes in a certain clock
frequency;
#X obj 211 461 bng 10 250 50 0 empty empty empty 17 7 0 10 -262144
-1 -1;
#X obj 228 461 bng 10 250 50 0 empty empty empty 17 7 0 10 -262144
-1 -1;
#X obj 245 461 bng 10 250 50 0 empty empty empty 17 7 0 10 -262144
-1 -1;
#X obj 262 461 bng 10 250 50 0 empty empty empty 17 7 0 10 -262144
-1 -1;
#X obj 279 461 bng 10 250 50 0 empty empty empty 17 7 0 10 -262144
-1 -1;
#X obj 295 461 bng 10 250 50 0 empty empty empty 17 7 0 10 -262144
-1 -1;
#X obj 313 461 bng 10 250 50 0 empty empty empty 17 7 0 10 -262144
-1 -1;
#X obj 329 461 bng 10 250 50 0 empty empty empty 17 7 0 10 -262144
-1 -1;
#X obj 186 139 f;
#X obj 129 73 inlet clock;
#X obj 186 163 + 1;
#X obj 186 185 mod 8;
#X obj 244 207 == 0;
#X obj 261 229 == 1;
#X obj 278 251 == 2;
#X obj 295 273 == 3;
#X obj 312 295 == 4;
#X obj 328 317 == 5;
#X obj 346 338 == 6;
#X obj 362 360 == 7;
#X obj 211 229 spigot;
#X obj 228 251 spigot;
#X obj 245 273 spigot;
#X obj 262 295 spigot;
#X obj 279 317 spigot;
#X obj 295 339 spigot;
#X obj 313 360 spigot;
#X obj 329 381 spigot;
#X obj 12 545 makenote;
#X floatatom 140 436 5 0 127 0 vel - -;
#X floatatom 140 456 5 0 5000 0 dur - -;
#X obj 12 590 outlet pitch;
#X obj 57 568 outlet velocity;
#X obj 205 473 8step_note;
#X obj 205 634 8step_note;
#X obj 205 496 8step_note;
#X obj 205 519 8step_note;
#X obj 205 542 8step_note;
#X obj 205 565 8step_note;
#X obj 205 611 8step_note;
#X obj 205 588 8step_note;
#X obj 129 104 route load;
#X obj 6 93 loadbang;
#X obj 6 70 r clear;
#X msg 102 51 load 100 100 60 62 64 65 67 69 71 72 0 0 0 0 0 0 0 0
;
#X obj 13 384 unpack f f f f f f f f f f f f f f f f f f;
#X msg 6 116 -1;
#X floatatom 180 475 3 0 0 0 - - -;
#X obj 154 474 f;
#X floatatom 180 498 3 0 0 0 - - -;
#X obj 154 497 f;
#X floatatom 179 521 3 0 0 0 - - -;
#X obj 153 520 f;
#X floatatom 179 544 3 0 0 0 - - -;
#X obj 153 543 f;
#X floatatom 180 567 3 0 0 0 - - -;
#X obj 154 566 f;
#X floatatom 180 589 3 0 0 0 - - -;
#X obj 154 588 f;
#X floatatom 180 611 3 0 0 0 - - -;
#X obj 154 610 f;
#X floatatom 180 635 3 0 0 0 - - -;
#X obj 154 634 f;
#X connect 3 0 36 0;
#X connect 3 0 37 0;
#X connect 3 0 38 0;
#X connect 3 0 39 0;
#X connect 3 0 40 0;
#X connect 3 0 41 0;
#X connect 3 0 42 0;
#X connect 3 0 43 0;
#X connect 4 0 36 1;
#X connect 4 0 37 1;
#X connect 4 0 38 1;
#X connect 4 0 39 1;
#X connect 4 0 40 1;
#X connect 4 0 41 1;
#X connect 4 0 42 1;
#X connect 4 0 43 1;
#X connect 5 0 36 2;
#X connect 5 0 37 2;
#X connect 5 0 38 2;
#X connect 5 0 39 2;
#X connect 5 0 40 2;
#X connect 5 0 41 2;
#X connect 5 0 42 2;
#X connect 5 0 43 2;
#X connect 6 0 36 3;
#X connect 6 0 37 3;
#X connect 6 0 38 3;
#X connect 6 0 39 3;
#X connect 6 0 40 3;
#X connect 6 0 41 3;
#X connect 6 0 42 3;
#X connect 6 0 43 3;
#X connect 7 0 36 4;
#X connect 7 0 37 4;
#X connect 7 0 38 4;
#X connect 7 0 39 4;
#X connect 7 0 40 4;
#X connect 7 0 41 4;
#X connect 7 0 42 4;
#X connect 7 0 43 4;
#X connect 8 0 36 5;
#X connect 8 0 37 5;
#X connect 8 0 38 5;
#X connect 8 0 39 5;
#X connect 8 0 40 5;
#X connect 8 0 41 5;
#X connect 8 0 42 5;
#X connect 8 0 43 5;
#X connect 9 0 36 6;
#X connect 9 0 37 6;
#X connect 9 0 38 6;
#X connect 9 0 39 6;
#X connect 9 0 40 6;
#X connect 9 0 41 6;
#X connect 9 0 42 6;
#X connect 9 0 43 6;
#X connect 10 0 36 7;
#X connect 10 0 37 7;
#X connect 10 0 38 7;
#X connect 10 0 39 7;
#X connect 10 0 40 7;
#X connect 10 0 41 7;
#X connect 10 0 42 7;
#X connect 10 0 43 7;
#X connect 11 0 13 0;
#X connect 12 0 44 0;
#X connect 13 0 11 1;
#X connect 13 0 14 0;
#X connect 14 0 15 0;
#X connect 14 0 16 0;
#X connect 14 0 17 0;
#X connect 14 0 18 0;
#X connect 14 0 20 0;
#X connect 14 0 19 0;
#X connect 14 0 21 0;
#X connect 14 0 22 0;
#X connect 15 0 23 1;
#X connect 16 0 24 1;
#X connect 17 0 25 1;
#X connect 18 0 26 1;
#X connect 19 0 27 1;
#X connect 20 0 28 1;
#X connect 21 0 29 1;
#X connect 22 0 30 1;
#X connect 23 0 3 0;
#X connect 24 0 4 0;
#X connect 25 0 5 0;
#X connect 26 0 6 0;
#X connect 27 0 7 0;
#X connect 28 0 8 0;
#X connect 29 0 9 0;
#X connect 30 0 10 0;
#X connect 31 0 34 0;
#X connect 31 1 35 0;
#X connect 32 0 31 1;
#X connect 33 0 31 2;
#X connect 36 0 33 0;
#X connect 36 0 32 0;
#X connect 36 0 51 0;
#X connect 37 0 33 0;
#X connect 37 0 32 0;
#X connect 37 0 65 0;
#X connect 38 0 33 0;
#X connect 38 0 32 0;
#X connect 38 0 53 0;
#X connect 39 0 33 0;
#X connect 39 0 32 0;
#X connect 39 0 55 0;
#X connect 40 0 33 0;
#X connect 40 0 32 0;
#X connect 40 0 39 0;
#X connect 40 0 57 0;
#X connect 41 0 33 0;
#X connect 41 0 32 0;
#X connect 41 0 59 0;
#X connect 42 0 33 0;
#X connect 42 0 32 0;
#X connect 42 0 63 0;
#X connect 43 0 33 0;
#X connect 43 0 32 0;
#X connect 43 0 61 0;
#X connect 44 0 48 0;
#X connect 44 0 49 0;
#X connect 44 1 11 0;
#X connect 44 1 23 0;
#X connect 44 1 24 0;
#X connect 44 1 25 0;
#X connect 44 1 26 0;
#X connect 44 1 27 0;
#X connect 44 1 28 0;
#X connect 44 1 29 0;
#X connect 44 1 30 0;
#X connect 45 0 47 0;
#X connect 45 0 49 0;
#X connect 46 0 45 0;
#X connect 47 0 44 0;
#X connect 48 0 32 0;
#X connect 48 1 33 0;
#X connect 48 2 50 0;
#X connect 48 3 52 0;
#X connect 48 4 54 0;
#X connect 48 5 56 0;
#X connect 48 6 58 0;
#X connect 48 7 60 0;
#X connect 48 8 62 0;
#X connect 48 9 64 0;
#X connect 48 10 36 0;
#X connect 48 11 38 0;
#X connect 48 12 39 0;
#X connect 48 13 40 0;
#X connect 48 14 41 0;
#X connect 48 15 43 0;
#X connect 48 16 42 0;
#X connect 48 17 37 0;
#X connect 49 0 11 1;
#X connect 50 0 51 1;
#X connect 51 0 50 0;
#X connect 51 0 31 0;
#X connect 52 0 53 1;
#X connect 53 0 52 0;
#X connect 53 0 31 0;
#X connect 54 0 55 1;
#X connect 55 0 54 0;
#X connect 55 0 31 0;
#X connect 56 0 57 1;
#X connect 57 0 56 0;
#X connect 57 0 31 0;
#X connect 58 0 59 1;
#X connect 59 0 58 0;
#X connect 59 0 31 0;
#X connect 60 0 61 1;
#X connect 61 0 60 0;
#X connect 61 0 31 0;
#X connect 62 0 63 1;
#X connect 63 0 62 0;
#X connect 63 0 31 0;
#X connect 64 0 65 1;
#X connect 65 0 64 0;
#X connect 65 0 31 0;
#X coords 0 -1 1 1 240 240 1 110 420;
