#N canvas 253 286 579 358 10;
#X obj 197 35 inlet;
#X obj 161 270 vline~;
#X obj 236 102 / 127;
#X obj 282 172 * \$3;
#X obj 329 172 + \$1 \$2;
#X msg 236 236 \$1 \$2 \, \$3 \$4 \$5;
#X obj 197 72 moses 1;
#X obj 236 205 pack f \$1 f \$2 f;
#X obj 236 133 t f f b;
#X obj 161 104 t b;
#X obj 161 133 pack 0 \$4;
#X text 90 103 note off;
#X text 292 101 note on;
#X obj 265 271 bang~;
#X obj 265 299 snapshot~;
#X obj 161 324 outlet;
#X connect 0 0 6 0;
#X connect 1 0 14 0;
#X connect 2 0 8 0;
#X connect 3 0 7 2;
#X connect 4 0 7 4;
#X connect 5 0 1 0;
#X connect 6 0 9 0;
#X connect 6 1 2 0;
#X connect 7 0 5 0;
#X connect 8 0 7 0;
#X connect 8 1 3 0;
#X connect 8 2 4 0;
#X connect 9 0 10 0;
#X connect 10 0 1 0;
#X connect 13 0 14 0;
#X connect 14 0 15 0;
