#N canvas 731 532 877 419 10;
#X obj 0 -13 cnv 15 300 400 empty empty Velocity_Controlled_ADSR_Envelope
20 12 0 14 -261682 -66577 0;
#X text 31 97 note off;
#X text 110 93 note on;
#X obj 26 283 outlet~;
#X obj 25 46 inlet;
#X obj 26 256 vline~;
#X obj 100 113 / 127;
#X obj 193 167 + \$1 \$2;
#X msg 100 215 \$1 \$2 \, \$3 \$4 \$5;
#X obj 25 73 moses 1;
#X obj 100 139 t f f b;
#X obj 25 115 t b;
#X obj 122 48 inlet;
#X obj 122 73 unpack f f f f;
#X text 123 28 ADSR params;
#X text 25 27 note velocity;
#X obj 146 167 *;
#X obj 100 191 pack f f f f f;
#X obj 25 139 pack 0 f;
#X connect 4 0 9 0;
#X connect 5 0 3 0;
#X connect 6 0 10 0;
#X connect 7 0 17 4;
#X connect 8 0 5 0;
#X connect 9 0 11 0;
#X connect 9 1 6 0;
#X connect 10 0 17 0;
#X connect 10 1 16 0;
#X connect 10 2 7 0;
#X connect 11 0 18 0;
#X connect 12 0 13 0;
#X connect 13 0 17 1;
#X connect 13 1 17 3;
#X connect 13 2 16 1;
#X connect 13 3 18 1;
#X connect 16 0 17 2;
#X connect 17 0 8 0;
#X connect 18 0 5 0;
#X coords 0 419 1 418 10 10 0;
