#N canvas 831 23 806 1005 10;
#X obj -211 971 dac~;
#X obj -211 318 notein;
#X obj -211 369 fmsynth~;
#X obj 66 304 wavetable~;
#X obj -211 853 reverb~;
#X obj 66 55 8step;
#X obj 66 9 bng 15 250 50 0 empty empty empty 17 7 0 10 -262144 -1
-1;
#X obj -310 33 bng 40 250 50 0 clear empty Clear 6 20 0 10 -258113
-262144 -1;
#X obj -211 757 pingpong~ 150;
#X obj -263 33 bng 40 250 50 0 load empty Load 9 20 0 10 -232576 -262144
-1;
#X obj -263 10 loadbang;
#X obj -291 256 r load;
#X msg -291 279 load 0 100 0 0.5 0 0 100 0.5 0 0 0.5 50 500 80 50;
#X obj -84 179 r load;
#X msg -84 210 load 3 0.8 100 50 80 100;
#X obj 66 29 metro 800;
#X connect 1 0 2 0;
#X connect 1 1 2 1;
#X connect 2 0 8 0;
#X connect 3 0 8 1;
#X connect 4 0 0 0;
#X connect 4 1 0 1;
#X connect 5 0 3 0;
#X connect 5 1 3 1;
#X connect 6 0 15 0;
#X connect 8 0 4 0;
#X connect 8 1 4 1;
#X connect 10 0 9 0;
#X connect 11 0 12 0;
#X connect 12 0 2 0;
#X connect 13 0 14 0;
#X connect 14 0 3 0;
#X connect 15 0 5 0;
