#N canvas 831 23 793 662 10;
#X obj -213 618 dac~;
#N canvas 656 191 789 446 pingpong~ 0;
#X obj 278 62 inlet~;
#X obj 326 62 inlet~;
#X obj 480 300 outlet~;
#X obj 278 296 outlet~;
#X obj 278 221 delwrite~ del_left 500;
#X obj 278 247 delread~ del_left 500;
#X obj 480 248 delread~ del_right 500;
#X obj 326 194 delwrite~ del_right 500;
#X obj 450 64 osc~ 2;
#X obj 326 169 expr~ if($v2 > 0 \, $v1*$v2 \, 0);
#X obj 279 146 expr~ if($v2 < 0 \, $v1*$v2 \, 0);
#X obj 278 272 *~;
#X obj 480 275 *~;
#X obj 239 272 *~;
#X obj 446 272 *~;
#X obj 171 70 vu 10 80 sig_left empty -1 -8 0 10 -99865 -262144 1 0
;
#X obj 190 70 vu 10 80 sig_right empty -1 -8 0 10 -99865 -262144 1
0;
#X obj 239 313 pvu~;
#X obj 445 319 pvu~;
#X obj 71 96 hsl 80 10 0.01 1 0 0 empty empty wet 5 5 0 9 -203904 -1
-1 7900 1;
#X obj 71 106 hsl 80 10 0.01 1 0 0 empty empty dry 5 5 0 9 -261682
-1 -1 3910 1;
#X text 158 177 comment;
#X obj 71 116 hsl 80 10 0.01 1 0 0 empty empty feedback 5 5 0 9 -232576
-1 -1 3910 1;
#X obj 90 224 *~;
#X obj 91 267 *~;
#X obj 4 4 loadbang;
#X obj 23 32 1;
#X obj 53 32 0.5;
#X connect 0 0 10 0;
#X connect 0 0 9 0;
#X connect 0 0 13 1;
#X connect 1 0 9 0;
#X connect 1 0 10 0;
#X connect 1 0 14 1;
#X connect 5 0 11 0;
#X connect 5 0 23 1;
#X connect 6 0 12 1;
#X connect 6 0 24 1;
#X connect 8 0 9 1;
#X connect 8 0 10 1;
#X connect 9 0 7 0;
#X connect 10 0 4 0;
#X connect 11 0 3 0;
#X connect 11 0 17 0;
#X connect 12 0 2 0;
#X connect 12 0 18 0;
#X connect 13 0 3 0;
#X connect 13 0 17 0;
#X connect 14 0 2 0;
#X connect 14 0 18 0;
#X connect 17 0 15 0;
#X connect 18 0 16 1;
#X connect 19 0 11 1;
#X connect 19 0 12 0;
#X connect 20 0 13 0;
#X connect 20 0 14 0;
#X connect 22 0 23 0;
#X connect 22 0 24 0;
#X connect 23 0 7 0;
#X connect 24 0 4 0;
#X connect 25 0 26 0;
#X connect 25 0 27 0;
#X connect 26 0 19 0;
#X connect 27 0 20 0;
#X connect 27 0 22 0;
#X coords 0 0 1 1 150 100 1 60 60;
#X restore -14 27 pd pingpong~;
#N canvas 380 352 453 357 noise_generator 0;
#X obj 176 143 noise~;
#X obj 176 170 pink~;
#X obj 68 80 vsl 10 50 0 1 0 0 empty empty empty 0 -9 0 10 -262144
-1 -1 3920 1;
#X obj 84 80 vsl 10 50 0 1 0 0 empty empty empty 0 -9 0 10 -261234
-258113 -1 3920 1;
#X obj 68 292 outlet~;
#X obj 68 231 expr~ $v1*$v2*0.2 + $v3*$v4*0.2;
#X obj 276 217 inlet~;
#X obj 104 90 vsl 15 40 0 1 0 0 empty empty sidex -5 -9 0 9 -257985
-1 -1 1170 1;
#X obj 137 90 vsl 15 40 0 1 0 0 empty empty out 0 -9 0 9 -128992 -262144
-1 1560 1;
#X obj 141 280 expr~ ((1-($v3*$v2))*$v1)*$v4;
#X obj 8 8 loadbang;
#X obj 28 30 0.8;
#X obj 65 30 0.3;
#X obj 98 30 0.4;
#X connect 0 0 5 1;
#X connect 1 0 5 3;
#X connect 2 0 5 0;
#X connect 3 0 5 2;
#X connect 5 0 9 0;
#X connect 6 0 9 2;
#X connect 7 0 9 1;
#X connect 8 0 9 3;
#X connect 9 0 4 0;
#X connect 10 0 11 0;
#X connect 10 0 12 0;
#X connect 10 0 13 0;
#X connect 11 0 2 0;
#X connect 11 0 3 0;
#X connect 12 0 7 0;
#X connect 13 0 8 0;
#X coords 0 0 1 1 100 80 1 60 60;
#X restore -140 46 pd noise_generator;
#N canvas 509 569 476 324 reverb~ 0;
#X msg 275 66 roomsize \$1;
#X msg 275 88 damping \$1;
#X msg 275 110 width \$1;
#X msg 275 132 wet \$1;
#X msg 275 154 dry \$1;
#X msg 275 176 bypass \$1;
#X text 355 175 - bypass the reverb processing \, using a 1 or 0;
#X text 336 153 - level of unprocessed signal \, between 0 and 1 (default:
0);
#X text 340 132 - level of reverbed signal \, between 0 and 1 (default:
0.3);
#X text 344 111 - stereo width of reverb (default: 1);
#X obj 70 78 hsl 128 10 0 1 0 0 empty empty roomsize 40 4 0 9 -261234
-1 -1 12700 1;
#X obj 70 88 hsl 128 10 0 1 0 0 empty empty damping 44 4 0 9 -261682
-1 -1 12065 1;
#X obj 70 98 hsl 128 10 0 1 0 0 empty empty width 51 4 0 9 -262130
-1 -1 11430 1;
#X obj 70 108 hsl 128 10 0 1 0 0 empty empty wet 56 4 0 9 -204786 -1
-1 11430 1;
#X obj 70 118 hsl 128 10 0 1 0 0 empty empty dry 55 4 0 9 -204800 -1
-1 3810 1;
#X obj 206 62 tgl 15 0 empty empty empty 17 7 0 9 -1 -262144 -1 0 1
;
#X obj 149 200 freeverb~;
#X obj 149 235 outlet~;
#X obj 206 234 outlet~;
#X obj 149 167 inlet~;
#X obj 200 168 inlet~;
#X obj 5 5 loadbang;
#X obj 18 37 1;
#X obj 18 57 0.95;
#X obj 18 77 0.9;
#X obj 18 97 0.9;
#X obj 18 117 0.3;
#X connect 0 0 16 0;
#X connect 1 0 16 0;
#X connect 2 0 16 0;
#X connect 4 0 16 0;
#X connect 5 0 16 0;
#X connect 10 0 0 0;
#X connect 11 0 1 0;
#X connect 12 0 2 0;
#X connect 13 0 3 0;
#X connect 14 0 4 0;
#X connect 15 0 5 0;
#X connect 16 0 17 0;
#X connect 16 1 18 0;
#X connect 19 0 16 0;
#X connect 20 0 16 1;
#X connect 21 0 22 0;
#X connect 21 0 23 0;
#X connect 21 0 24 0;
#X connect 21 0 25 0;
#X connect 21 0 26 0;
#X connect 22 0 10 0;
#X connect 23 0 11 0;
#X connect 24 0 12 0;
#X connect 25 0 13 0;
#X connect 26 0 14 0;
#X coords 0 -1 1 1 165 70 1 60 60;
#X restore -9 134 pd reverb~;
#X obj -213 123 notein;
#X obj -213 234 fmsynth~;
#X obj 43 224 wavetable~;
#X connect 1 0 3 0;
#X connect 1 1 3 1;
#X connect 4 0 5 0;
#X connect 4 0 6 0;
#X connect 4 1 5 1;
#X connect 4 1 6 1;
#X connect 5 0 0 0;
#X connect 6 0 0 1;
#X connect 6 0 0 0;
