#N canvas 1184 23 445 258 10;
#X obj 19 63 cnv 15 400 150 empty empty Carrier 20 12 0 14 -204800
-66577 0;
#X obj 30 30 inlet pitch;
#X obj 30 149 osc~;
#X obj 30 101 mtof~;
#X obj 30 171 *~;
#X obj 30 125 expr~ $v1+($v1*$v2);
#X obj 30 224 outlet~;
#X obj 113 30 inlet~ sideband_freq;
#X obj 248 30 inlet~ volume;
#X connect 1 0 3 0;
#X connect 2 0 4 0;
#X connect 3 0 5 0;
#X connect 4 0 6 0;
#X connect 5 0 2 0;
#X connect 7 0 5 1;
#X connect 8 0 4 1;
