#N canvas 547 118 1150 620 10;
#X obj 10 31 unpack f f;
#X obj 10 9 inlet note;
#X obj 10 76 s \$0-pitch;
#X obj 67 54 s \$0-velocity;
#X obj 2 188 cnv 15 500 350 empty empty Carrier_1 20 12 0 14 -204800
-66577 0;
#X obj 181 258 adsr~;
#X obj 21 304 +;
#X obj 21 253 r \$0-pitch;
#X obj 181 210 r \$0-velocity;
#X obj 181 328 *~;
#X obj 21 446 fm_voice_carrier~;
#X obj 325 328 *~;
#X obj 161 8 inlet adsr_parameters;
#X obj 302 7 inlet carrier_offsets;
#X obj 302 29 unpack f f;
#X obj 500 29 unpack f f;
#X obj 714 121 unpack f f;
#X obj 161 30 s \$0-adsr_parameters;
#X obj 208 233 r \$0-adsr_parameters;
#X obj 70 386 fm_voice_modulator~;
#X obj 214 386 fm_voice_modulator~;
#X obj 500 8 inlet modulator_offsets;
#X obj 748 57 unpack f f;
#X obj 968 11 inlet carrier_volumes;
#X obj 968 36 unpack f f;
#X obj 968 83 s \$0-carrier1_vol;
#X obj 1025 61 s \$0-carrier2_vol;
#X obj 359 51 s \$0-carrier2_offset;
#X obj 302 72 s \$0-carrier1_offset;
#X obj 557 51 s \$0-modulator2_offset;
#X obj 500 72 s \$0-modulator1_offset;
#X obj 771 142 s \$0-c1_modulator2_depth;
#X obj 714 163 s \$0-c1_modulator1_depth;
#X obj 805 78 s \$0-c2_modulator2_depth;
#X obj 748 99 s \$0-c2_modulator1_depth;
#X obj 714 7 inlet modulator_depths;
#X obj 714 34 list split 2;
#X obj 125 353 r \$0-modulator1_offset;
#X obj 269 353 r \$0-modulator2_offset;
#X obj 36 276 r \$0-carrier1_offset;
#X obj 196 284 r \$0-c1_modulator1_depth;
#X obj 340 305 r \$0-c1_modulator2_depth;
#X obj 36 468 r \$0-carrier1_vol;
#X obj 21 492 *~;
#X obj 504 188 cnv 15 500 350 empty empty Carrier_2 20 12 0 14 -203904
-66577 0;
#X obj 683 258 adsr~;
#X obj 523 304 +;
#X obj 523 253 r \$0-pitch;
#X obj 683 210 r \$0-velocity;
#X obj 683 328 *~;
#X obj 523 446 fm_voice_carrier~;
#X obj 827 328 *~;
#X obj 710 233 r \$0-adsr_parameters;
#X obj 572 386 fm_voice_modulator~;
#X obj 716 386 fm_voice_modulator~;
#X obj 627 353 r \$0-modulator1_offset;
#X obj 771 353 r \$0-modulator2_offset;
#X obj 523 492 *~;
#X obj 538 468 r \$0-carrier2_vol;
#X obj 698 284 r \$0-c2_modulator1_depth;
#X obj 842 305 r \$0-c2_modulator2_depth;
#X obj 538 276 r \$0-carrier2_offset;
#X obj 21 551 throw~ \$1-summing_bus;
#X obj 523 552 throw~ \$1-summing_bus;
#X connect 0 0 2 0;
#X connect 0 1 3 0;
#X connect 1 0 0 0;
#X connect 5 0 9 0;
#X connect 5 0 10 2;
#X connect 5 0 11 0;
#X connect 6 0 10 0;
#X connect 6 0 19 0;
#X connect 6 0 20 0;
#X connect 7 0 6 0;
#X connect 8 0 5 0;
#X connect 9 0 19 2;
#X connect 10 0 43 0;
#X connect 11 0 20 2;
#X connect 12 0 17 0;
#X connect 13 0 14 0;
#X connect 14 0 28 0;
#X connect 14 1 27 0;
#X connect 15 0 30 0;
#X connect 15 1 29 0;
#X connect 16 0 32 0;
#X connect 16 1 31 0;
#X connect 18 0 5 1;
#X connect 19 0 10 1;
#X connect 20 0 10 1;
#X connect 21 0 15 0;
#X connect 22 0 34 0;
#X connect 22 1 33 0;
#X connect 23 0 24 0;
#X connect 24 0 25 0;
#X connect 24 1 26 0;
#X connect 35 0 36 0;
#X connect 36 0 16 0;
#X connect 36 1 22 0;
#X connect 37 0 19 1;
#X connect 38 0 20 1;
#X connect 39 0 6 1;
#X connect 40 0 9 1;
#X connect 41 0 11 1;
#X connect 42 0 43 1;
#X connect 43 0 62 0;
#X connect 45 0 49 0;
#X connect 45 0 50 2;
#X connect 45 0 51 0;
#X connect 46 0 50 0;
#X connect 46 0 53 0;
#X connect 46 0 54 0;
#X connect 47 0 46 0;
#X connect 48 0 45 0;
#X connect 49 0 53 2;
#X connect 50 0 57 0;
#X connect 51 0 54 2;
#X connect 52 0 45 1;
#X connect 53 0 50 1;
#X connect 54 0 50 1;
#X connect 55 0 53 1;
#X connect 56 0 54 1;
#X connect 57 0 63 0;
#X connect 58 0 57 1;
#X connect 59 0 49 1;
#X connect 60 0 51 1;
#X connect 61 0 46 1;
