#N canvas 78 150 846 719 10;
#X obj 580 110 pack 0 0 0;
#X obj 68 244 adsr_control;
#X obj 580 85 poly 5 0;
#X obj 580 134 route 1 2 3 4 5;
#X obj 580 32 inlet note;
#X obj 625 58 inlet velocity;
#X obj 25 38 cnv 15 210 200 empty empty Operators 20 12 0 14 -159808
-262144 0;
#X obj 28 61 cnv 15 100 110 empty empty Carrier_1 20 10 0 11 -262144
-66577 0;
#X obj 33 94 hsl 68 15 -24 24 0 0 empty empty offset -2 -8 0 10 -262144
-1 -1 3900 1;
#X floatatom 106 93 3 0 0 0 - - -;
#X obj 82 92 int;
#X obj 33 124 hsl 68 15 0 127 0 0 empty empty mod_1_depth -2 -8 0 10
-262144 -1 -1 1800 1;
#X obj 107 151 knob 20 20 0 1 0 0 empty empty empty 2 8 0 12 -262144
-159808 -1 1600 1;
#X obj 33 154 hsl 68 15 0 127 0 0 empty empty mod_2_depth -2 -8 0 10
-262144 -1 -1 300 1;
#X obj 132 61 cnv 15 100 110 empty empty Carrier_2 20 10 0 11 -262144
-66577 0;
#X obj 137 94 hsl 68 15 -24 24 0 0 empty empty offset -2 -8 0 10 -262144
-1 -1 4300 1;
#X floatatom 210 93 3 0 0 0 - - -;
#X obj 186 92 int;
#X obj 137 124 hsl 68 15 0 127 0 0 empty empty mod_1_depth -2 -8 0
10 -262144 -1 -1 700 1;
#X obj 211 151 knob 20 20 0 1 0 0 empty empty empty 2 8 0 12 -262144
-159808 -1 0 1;
#X obj 137 154 hsl 68 15 0 127 0 0 empty empty mod_2_depth -2 -8 0
10 -262144 -1 -1 2700 1;
#X obj 28 175 cnv 15 100 60 empty empty Mod_1 20 10 0 11 -262144 -66577
0;
#X obj 33 206 hsl 68 15 -24 24 0 0 empty empty offset -2 -8 0 10 -262144
-1 -1 1900 1;
#X floatatom 106 205 3 0 0 0 - - -;
#X obj 82 204 int;
#X obj 132 175 cnv 15 100 60 empty empty Mod_2 20 10 0 11 -262144 -66577
0;
#X obj 137 206 hsl 68 15 -24 24 0 0 empty empty offset -2 -8 0 10 -262144
-1 -1 3300 1;
#X floatatom 210 205 3 0 0 0 - - -;
#X obj 186 204 int;
#X obj 257 138 pack f f;
#X obj 258 306 pack f f;
#X obj 258 198 pack f f;
#X obj 258 282 bng 15 250 50 0 empty empty empty 17 7 0 10 -262144
-1 -1;
#X obj 258 231 bng 15 250 50 0 empty empty empty 17 7 0 10 -262144
-1 -1;
#X obj 258 173 bng 15 250 50 0 empty empty empty 17 7 0 10 -262144
-1 -1;
#X obj 257 114 bng 15 250 50 0 empty empty empty 17 7 0 10 -262144
-1 -1;
#X obj 258 254 pack f f f f;
#X obj 466 579 catch~ \$0-summing_bus;
#X obj 27 330 knob 36 36 0 1 0 0 \$0-volume empty empty 0 -8 0 8 -262144
-4034 -1 3200 1;
#X obj 481 602 r \$0-volume;
#X obj 466 624 *~;
#X obj 466 652 outlet~;
#X obj 338 561 fm_voice~ \$0;
#X obj 446 499 fm_voice~ \$0;
#X obj 546 435 fm_voice~ \$0;
#X obj 655 371 fm_voice~ \$0;
#X obj 756 305 fm_voice~ \$0;
#X connect 0 0 3 0;
#X connect 1 0 42 1;
#X connect 1 0 43 1;
#X connect 1 0 44 1;
#X connect 1 0 45 1;
#X connect 1 0 46 1;
#X connect 2 0 0 0;
#X connect 2 1 0 1;
#X connect 2 2 0 2;
#X connect 3 0 42 0;
#X connect 3 1 43 0;
#X connect 3 2 44 0;
#X connect 3 3 45 0;
#X connect 3 4 46 0;
#X connect 4 0 2 0;
#X connect 5 0 2 1;
#X connect 8 0 10 0;
#X connect 9 0 29 0;
#X connect 10 0 9 0;
#X connect 11 0 36 0;
#X connect 12 0 30 0;
#X connect 13 0 36 1;
#X connect 13 0 33 0;
#X connect 15 0 17 0;
#X connect 16 0 29 1;
#X connect 16 0 35 0;
#X connect 17 0 16 0;
#X connect 18 0 36 2;
#X connect 18 0 33 0;
#X connect 19 0 30 1;
#X connect 19 0 32 0;
#X connect 20 0 33 0;
#X connect 20 0 36 3;
#X connect 22 0 24 0;
#X connect 22 0 31 0;
#X connect 24 0 23 0;
#X connect 26 0 28 0;
#X connect 26 0 31 1;
#X connect 26 0 34 0;
#X connect 28 0 27 0;
#X connect 29 0 42 2;
#X connect 29 0 43 2;
#X connect 29 0 44 2;
#X connect 29 0 45 2;
#X connect 29 0 46 2;
#X connect 30 0 42 5;
#X connect 30 0 43 5;
#X connect 30 0 44 5;
#X connect 30 0 45 5;
#X connect 30 0 46 5;
#X connect 31 0 42 3;
#X connect 31 0 43 3;
#X connect 31 0 44 3;
#X connect 31 0 45 3;
#X connect 31 0 46 3;
#X connect 32 0 30 0;
#X connect 33 0 36 0;
#X connect 34 0 31 0;
#X connect 35 0 29 0;
#X connect 36 0 42 4;
#X connect 36 0 43 4;
#X connect 36 0 44 4;
#X connect 36 0 45 4;
#X connect 36 0 46 4;
#X connect 37 0 40 0;
#X connect 39 0 40 1;
#X connect 40 0 41 0;
#X coords 0 -1 1 1 220 356 1 20 20;
