#N canvas 5 24 250 158 10;
#X obj -177 112 dac~;
#X obj -298 33 bng 40 250 50 0 clear empty Clear 6 20 0 10 -258113
-262144 -1;
#X obj -251 33 bng 40 250 50 0 load empty Load 9 20 0 10 -232576 -262144
-1;
#X obj -251 10 loadbang;
#N canvas 255 23 1660 973 composition 1;
#X obj 86 7 inlet;
#X obj -211 976 outlet~ left;
#X obj -68 971 outlet~ right;
#X obj 86 340 fmsynth~;
#X obj 1078 331 wavetable~;
#X obj -211 853 reverb~;
#X obj 86 67 8step;
#X obj -211 757 pingpong~ 150;
#X obj -84 179 r load;
#X obj -286 36 r load;
#X obj 86 43 metro 3000;
#X obj 335 43 metro 700;
#X obj 584 43 metro 600;
#X obj 830 43 metro 1000;
#X obj 1077 43 metro 8;
#X obj 1322 43 metro 7000;
#X obj 1569 43 metro 60000;
#X msg -270 60 stop;
#X msg -268 84 load 100 10000 48 50 52 53 55 57 59 60 0 1 2 4 5 9 32
12;
#X obj 335 67 8step;
#X obj 584 67 8step;
#X obj 830 67 8step;
#X obj 1077 67 8step;
#X obj 1322 67 8step;
#X msg -283 279 load 0 100 0 0.5 0 0 100 0.5 5 0 0.5 500 500 20 1000
;
#X msg -84 210 load 3 0.8 50 100 80 50;
#X obj 335 332 wavetable~;
#X connect 0 0 10 0;
#X connect 0 0 11 0;
#X connect 0 0 12 0;
#X connect 0 0 13 0;
#X connect 0 0 14 0;
#X connect 0 0 15 0;
#X connect 0 0 16 0;
#X connect 3 0 7 0;
#X connect 4 0 7 1;
#X connect 5 0 1 0;
#X connect 5 1 2 0;
#X connect 6 0 3 0;
#X connect 6 1 3 1;
#X connect 7 0 5 0;
#X connect 7 1 5 1;
#X connect 8 0 25 0;
#X connect 9 0 18 0;
#X connect 9 0 24 0;
#X connect 9 0 17 0;
#X connect 10 0 6 0;
#X connect 11 0 19 0;
#X connect 12 0 20 0;
#X connect 13 0 21 0;
#X connect 14 0 22 0;
#X connect 15 0 23 0;
#X connect 17 0 10 0;
#X connect 17 0 11 0;
#X connect 17 0 12 0;
#X connect 17 0 13 0;
#X connect 17 0 14 0;
#X connect 17 0 15 0;
#X connect 17 0 16 0;
#X connect 18 0 6 0;
#X connect 19 0 26 0;
#X connect 19 1 26 1;
#X connect 22 0 4 0;
#X connect 22 1 4 1;
#X connect 24 0 3 0;
#X connect 25 0 4 0;
#X connect 26 0 7 0;
#X restore -177 85 pd composition;
#X obj -177 11 bng 60 250 50 0 empty empty Play 16 29 0 12 -204786
-262144 -1;
#X connect 3 0 2 0;
#X connect 4 0 0 0;
#X connect 4 1 0 1;
#X connect 5 0 4 0;
