#N canvas 322 484 675 381 10;
#X obj -281 346 dac~;
#X obj -281 77 bng 40 250 50 0 clear empty Clear 6 20 0 10 -258113
-262144 -1;
#X obj -281 146 bng 40 250 50 0 load empty Load 9 20 0 10 -232576 -262144
-1;
#X obj -281 123 loadbang;
#N canvas 0 23 1660 973 composition 1;
#X obj 86 -121 inlet;
#X obj 871 1202 outlet~ left;
#X obj 1014 1202 outlet~ right;
#X obj 86 360 fmsynth~;
#X obj 1157 359 wavetable~;
#X obj 871 1084 reverb~;
#X obj 86 67 8step;
#X obj 871 986 pingpong~ 150;
#X obj 86 3 metro 3000;
#X obj 335 3 metro 700;
#X obj 664 3 metro 600;
#X obj 910 3 metro 1000;
#X obj 1157 3 metro 8;
#X obj 1490 -8 metro 7000;
#X msg 11 -105 stop;
#X msg 74 47 load 100 10000 48 50 52 53 55 57 59 60 0 1 2 4 5 9 32
12;
#X obj 335 67 8step;
#X obj 664 67 8step;
#X obj 910 67 8step;
#X obj 1491 66 8step;
#X msg 73 338 load 0 100 0 0.5 0 0 100 0.5 5 0 0.5 500 500 20 1000
;
#X msg 1145 338 load 3 0.8 50 100 80 50;
#X obj 335 359 wavetable~;
#X msg 344 317 load 0.805 0.7 0 500 84 160;
#X obj 344 303 bng 10 250 50 0 empty load empty 0 0 0 7 -232576 -1
-1;
#X msg 298 25 load 127 90 60 62 64 65 67 69 71 72 4 2 56 0 0 67 128
0;
#X obj 1145 325 bng 10 250 50 0 empty load empty 0 0 0 7 -232576 -1
-1;
#X obj 664 359 fmsynth~;
#X obj 73 324 bng 10 250 50 0 empty load empty 0 0 0 7 -232576 -1 -1
;
#X obj 651 324 bng 10 250 50 0 empty load empty 0 0 0 7 -232576 -1
-1;
#X msg 651 338 load 12 3 0 0.2 -5 0 2 1 0 -3 0.9 50 50 90 200;
#X obj 652 33 bng 10 250 50 0 empty load empty 0 0 0 7 -232576 -1 -1
;
#X msg 652 46 load 100 456 60 62 64 65 67 69 71 72 192 3 15 0 0 48
0 0;
#X obj 910 359 fmsynth~;
#X obj 928 297 bng 10 250 50 0 empty load empty 0 0 0 7 -232576 -1
-1;
#X obj 771 11 bng 10 250 50 0 empty load empty 0 0 0 7 -232576 -1 -1
;
#X msg 928 312 load 0 0 0 0.6 -24 0 1 0.8 -24 -24 1 3 11 97 18;
#X msg 771 24 load 127 148 48 60 64 65 67 69 71 72 170 130 17 0 2 0
0 0;
#X obj 1491 360 fmsynth~;
#X obj 1458 298 bng 10 250 50 0 empty load empty 0 0 0 7 -232576 -1
-1;
#X msg 1458 311 load 0 20 5 0.45 -22 0 18 0.8 0 -4 0.7 100 1271 41
2188;
#X obj 1384 -1 bng 10 250 50 0 empty load empty 0 0 0 7 -232576 -1
-1;
#X msg 1384 13 load 100 2411 60 62 64 65 67 69 46 36 10 32 0 128 0
0 48 48;
#X obj 298 11 bng 10 250 50 0 empty load empty 0 0 0 7 -232576 -1 -1
;
#X obj 74 32 bng 10 250 50 0 empty load empty 0 0 0 7 -232576 -1 -1
;
#X obj 11 -121 bng 10 250 50 0 empty load empty 0 0 0 7 -232576 -1
-1;
#X obj 1157 67 8step;
#X obj 1136 33 bng 10 250 50 0 empty load empty 0 0 0 7 -232576 -1
-1;
#X obj 19 751 vline~;
#X obj 19 711 bng 10 250 50 0 empty play empty 0 0 0 7 -204786 -1 -1
;
#X obj 69 777 *~;
#X obj 270 818 vline~;
#X obj 270 778 bng 10 250 50 0 empty play empty 0 0 0 7 -204786 -1
-1;
#X obj 320 844 *~;
#X obj 599 819 vline~;
#X obj 599 779 bng 10 250 50 0 empty play empty 0 0 0 7 -204786 -1
-1;
#X obj 649 845 *~;
#X obj 845 768 vline~;
#X obj 845 728 bng 10 250 50 0 empty play empty 0 0 0 7 -204786 -1
-1;
#X obj 895 794 *~;
#X obj 1092 820 vline~;
#X obj 1092 780 bng 10 250 50 0 empty play empty 0 0 0 7 -204786 -1
-1;
#X obj 1142 846 *~;
#X obj 1426 824 vline~;
#X obj 1426 784 bng 10 250 50 0 empty play empty 0 0 0 7 -204786 -1
-1;
#X obj 1476 850 *~;
#X msg 1136 46 load 100 100 60 62 64 65 67 69 86 88 0 4 34 8 32 2 4
32;
#X msg 1426 801 0 \, 1 12000 5000 \, 0 1000 17000;
#X msg 845 745 0 \, 1 2000 17000 \, 0 5000 25000;
#X msg 599 796 0 \, 1 2000 25000 \, 0 10 30000;
#X msg 1092 797 0 \, 1 30000 30000 \, 0 10 60000;
#X msg 270 795 0 \, 1 500 30000 \, 0 10000 35000;
#X msg 19 728 0 \, 1 7000 0 \, 0 12000 7000 \, 1 15000 45000 \, 0 10
60000;
#X obj 113 754 bng 10 250 50 0 empty clear empty 0 0 0 7 -258113 -1
-1;
#X msg 113 769 1;
#X obj 773 731 bng 10 250 50 0 empty clear empty 0 0 0 7 -258113 -1
-1;
#X msg 773 746 1;
#X obj 1300 787 bng 10 250 50 0 empty clear empty 0 0 0 7 -258113 -1
-1;
#X msg 1300 802 1;
#X connect 0 0 8 0;
#X connect 0 0 9 0;
#X connect 0 0 10 0;
#X connect 0 0 11 0;
#X connect 0 0 12 0;
#X connect 0 0 13 0;
#X connect 3 0 50 1;
#X connect 4 0 62 1;
#X connect 5 0 1 0;
#X connect 5 1 2 0;
#X connect 6 0 3 0;
#X connect 6 1 3 1;
#X connect 7 0 5 0;
#X connect 7 1 5 1;
#X connect 8 0 6 0;
#X connect 9 0 16 0;
#X connect 10 0 17 0;
#X connect 11 0 18 0;
#X connect 12 0 46 0;
#X connect 13 0 19 0;
#X connect 14 0 8 0;
#X connect 14 0 9 0;
#X connect 14 0 10 0;
#X connect 14 0 11 0;
#X connect 14 0 12 0;
#X connect 14 0 13 0;
#X connect 15 0 6 0;
#X connect 16 0 22 0;
#X connect 16 1 22 1;
#X connect 17 0 27 0;
#X connect 17 1 27 1;
#X connect 18 0 33 0;
#X connect 18 1 33 1;
#X connect 19 0 38 0;
#X connect 19 1 38 1;
#X connect 20 0 3 0;
#X connect 21 0 4 0;
#X connect 22 0 53 1;
#X connect 23 0 22 0;
#X connect 23 0 3 1;
#X connect 24 0 23 0;
#X connect 25 0 16 0;
#X connect 26 0 21 0;
#X connect 27 0 56 1;
#X connect 28 0 20 0;
#X connect 29 0 30 0;
#X connect 30 0 27 0;
#X connect 31 0 32 0;
#X connect 32 0 17 0;
#X connect 33 0 59 1;
#X connect 34 0 36 0;
#X connect 35 0 37 0;
#X connect 36 0 33 0;
#X connect 37 0 18 0;
#X connect 38 0 65 1;
#X connect 39 0 40 0;
#X connect 40 0 38 0;
#X connect 41 0 42 0;
#X connect 42 0 19 0;
#X connect 43 0 25 0;
#X connect 44 0 15 0;
#X connect 45 0 14 0;
#X connect 46 0 4 0;
#X connect 46 1 4 1;
#X connect 47 0 66 0;
#X connect 48 0 50 0;
#X connect 49 0 72 0;
#X connect 50 0 7 0;
#X connect 51 0 53 0;
#X connect 52 0 71 0;
#X connect 53 0 7 0;
#X connect 54 0 56 0;
#X connect 55 0 69 0;
#X connect 56 0 7 1;
#X connect 57 0 59 0;
#X connect 58 0 68 0;
#X connect 59 0 5 0;
#X connect 59 0 5 1;
#X connect 60 0 62 0;
#X connect 61 0 70 0;
#X connect 62 0 7 0;
#X connect 63 0 65 0;
#X connect 64 0 67 0;
#X connect 65 0 7 1;
#X connect 65 0 5 0;
#X connect 66 0 46 0;
#X connect 67 0 63 0;
#X connect 68 0 57 0;
#X connect 69 0 54 0;
#X connect 70 0 60 0;
#X connect 71 0 51 0;
#X connect 72 0 48 0;
#X connect 73 0 74 0;
#X connect 74 0 48 0;
#X connect 74 0 51 0;
#X connect 75 0 76 0;
#X connect 76 0 54 0;
#X connect 76 0 57 0;
#X connect 77 0 78 0;
#X connect 78 0 60 0;
#X connect 78 0 63 0;
#X restore -281 296 pd composition;
#X obj -281 202 bng 60 250 50 0 play empty Play 16 29 0 12 -204786
-262144 -1;
#X msg -31 227 stop;
#X obj -11 348 writesf~ 2;
#X obj -11 323 *~ 0.4;
#X obj 46 323 *~ 0.4;
#X msg -11 276 open recording.wav \, start;
#X msg 199 276 open recording.wav \, start;
#X obj 199 301 readsf~ 2;
#X text -232 157 loads all the synths/sequencers with the composition
;
#X text -231 81 resets all the synths/sequencers to default settings..
also needed to restore the mixing of all the instruments;
#X text -209 222 play the composition with PD;
#X text -11 256 press to start recording to wav;
#X text 199 256 press to play recorded wav;
#X text -261 276 explore the composition/synths here;
#X obj -285 3 cnv 15 670 60 empty empty Y3761870_PureData_Synth_Design_and_Composition_Assignment
20 12 0 14 -233017 -66577 0;
#X text -267 27 Contains an implementation of polyphonic FM and Wavetable
synthesisers \, some basic effects \, and a sequencer.;
#X connect 3 0 2 0;
#X connect 4 0 0 0;
#X connect 4 0 8 0;
#X connect 4 1 0 1;
#X connect 4 1 9 0;
#X connect 5 0 4 0;
#X connect 6 0 7 0;
#X connect 6 0 12 0;
#X connect 8 0 7 0;
#X connect 9 0 7 1;
#X connect 10 0 7 0;
#X connect 11 0 12 0;
#X connect 12 0 0 0;
#X connect 12 1 0 1;
