#N canvas 0 22 605 562 10;
#X obj 105 101 cnv 15 110 64 empty empty Parameters 20 12 0 12 -228856
-66577 0;
#X obj 255 86 inlet~;
#X obj 407 85 inlet~;
#X obj 114 125 hsl 93 10 0.01 1 0 0 \$0-wet empty wet 5 5 0 9 -203904
-1 -1 6900 1;
#X obj 114 137 hsl 93 10 0.01 1 0 0 \$0-dry empty dry 5 5 0 9 -261682
-1 -1 4554 1;
#X obj 114 149 hsl 93 10 0.01 1 0 0 \$0-feedback empty feedback 5 5
0 9 -232576 -1 -1 7054 1;
#X obj 14 91 loadbang;
#X obj 62 140 0.5;
#X obj 194 86 tgl 20 0 \$0-skip empty skip -28 9 0 10 -261234 -262144
-261234 0 1;
#X obj 238 167 cnv 15 350 180 empty empty Feedback 20 12 0 14 -204800
-66577 0;
#X obj 407 311 delwrite~ \$0-left \$1;
#X obj 270 206 delread~ \$0-left \$1;
#X obj 270 255 *~;
#X obj 285 230 r \$0-feedback;
#X obj 255 311 delwrite~ \$0-right \$1;
#X obj 422 258 *~;
#X obj 437 233 r \$0-feedback;
#X obj 422 209 delread~ \$0-right \$1;
#X obj 255 281 +~;
#X obj 407 285 +~;
#X obj 238 349 cnv 15 350 160 empty empty Mixing 20 12 0 14 -203904
-66577 0;
#X obj 440 436 r \$0-wet;
#X obj 314 385 r \$0-dry;
#X obj 294 110 r \$0-skip;
#X obj 255 137 spigot~;
#X obj 446 110 r \$0-skip;
#X obj 407 137 spigot~;
#X obj 290 528 outlet~;
#X obj 435 530 outlet~;
#X obj 299 421 *~;
#X obj 270 421 *~;
#X obj 395 467 *~;
#X obj 425 467 *~;
#X obj 395 386 delread~ \$0-left \$1;
#X obj 425 412 delread~ \$0-right \$1;
#X obj 2 2 cnv 15 600 60 empty empty pingpong~ 20 12 0 14 -233017 -66577
0;
#X text 22 23 a stereo 'ping pong' delay - delay alternates output
on either channel to create interesting stereo field;
#X obj 14 69 r clear;
#X obj 62 119 0.75;
#X connect 1 0 24 0;
#X connect 2 0 26 0;
#X connect 6 0 7 0;
#X connect 6 0 38 0;
#X connect 7 0 4 0;
#X connect 11 0 12 0;
#X connect 12 0 18 1;
#X connect 13 0 12 1;
#X connect 15 0 19 1;
#X connect 16 0 15 1;
#X connect 17 0 15 0;
#X connect 18 0 14 0;
#X connect 19 0 10 0;
#X connect 21 0 31 1;
#X connect 21 0 32 1;
#X connect 22 0 29 1;
#X connect 22 0 30 1;
#X connect 23 0 24 1;
#X connect 24 0 18 0;
#X connect 24 0 30 0;
#X connect 24 1 27 0;
#X connect 25 0 26 1;
#X connect 26 0 19 0;
#X connect 26 0 29 0;
#X connect 26 1 28 0;
#X connect 29 0 28 0;
#X connect 30 0 27 0;
#X connect 31 0 27 0;
#X connect 32 0 28 0;
#X connect 33 0 31 0;
#X connect 34 0 32 0;
#X connect 37 0 6 0;
#X connect 38 0 3 0;
#X connect 38 0 5 0;
#X coords 0 -1 1 1 120 90 1 100 80;
