#N canvas 1103 128 563 658 10;
#X obj 1 1 cnv 15 500 220 empty empty empty 20 12 0 14 -232576 -66577
0;
#X obj 1 223 cnv 15 500 220 empty empty empty 20 12 0 14 -203904 -66577
0;
#X obj 1 445 cnv 15 500 220 empty empty empty 20 12 0 14 -204786 -66577
0;
#X obj 12 579 *~;
#X obj 7 351 expr~ $v1*$v2 + $v3*(1-$v2);
#X obj 267 352 expr~ $v1*$v2 + $v3*(1-$v2);
#X obj 12 524 expr~ $v1*$v2 + $v3*(1-$v2);
#X text 8 228 NORTH-SOUTH WAVE VECTOR PANNING;
#X text 7 251 north;
#X text 268 255 south;
#X text 12 452 FINAL MIX OF WAVETABLES;
#X obj 8 99 mtof;
#X obj 8 129 phasor~;
#X text 16 72 note#;
#X text 85 73 velocity;
#X text 5 3 INPUTS;
#X obj 8 152 *~ 253;
#X obj 8 174 +~ 1;
#X text 64 160 tablesize should be 0-255 but it's actually 1-253 because
of tabread4~ interp;
#X obj 8 196 send~ \$0-wave_idx;
#X obj 7 378 send~ \$0-north_mix;
#X obj 267 380 send~ \$0-south_mix;
#X obj 12 475 r~ \$0-north_mix;
#X obj 171 476 r~ \$0-south_mix;
#X obj 27 553 r~ \$0-velocity;
#X obj 148 108 s~ \$0-velocity;
#X obj 346 326 r~ \$0-velocity;
#X obj 86 326 r~ \$0-velocity;
#X obj 148 81 adsr~;
#X obj 8 48 unpack f f;
#X text 293 10 comment;
#X obj 8 25 inlet note;
#X obj 175 26 inlet adsr_params;
#X obj 292 25 inlet~ lfo;
#X obj 292 57 s~ \$0-lfo;
#X obj 91 500 r~ \$0-lfo;
#X obj 7 273 r~ \$0-wave_idx;
#X obj 267 279 r~ \$0-wave_idx;
#X obj 7 304 tabread4~ \$1-ne;
#X obj 166 305 tabread4~ \$1-nw;
#X obj 267 306 tabread4~ \$1-se;
#X obj 426 303 tabread4~ \$1-sw;
#X obj 12 605 throw~ \$1-summing_bus;
#X connect 3 0 42 0;
#X connect 4 0 20 0;
#X connect 5 0 21 0;
#X connect 6 0 3 0;
#X connect 11 0 12 0;
#X connect 12 0 16 0;
#X connect 16 0 17 0;
#X connect 17 0 19 0;
#X connect 22 0 6 0;
#X connect 23 0 6 2;
#X connect 24 0 3 1;
#X connect 26 0 5 1;
#X connect 27 0 4 1;
#X connect 28 0 25 0;
#X connect 29 0 11 0;
#X connect 29 1 28 0;
#X connect 31 0 29 0;
#X connect 32 0 28 1;
#X connect 33 0 34 0;
#X connect 35 0 6 1;
#X connect 36 0 38 0;
#X connect 36 0 39 0;
#X connect 37 0 40 0;
#X connect 37 0 41 0;
#X connect 38 0 4 0;
#X connect 39 0 4 2;
#X connect 40 0 5 0;
#X connect 41 0 5 2;
#X coords 0 658 1 657 85 60 0;
